<svg width="256" height="256" viewBox="0 0 256 256" fill="none" xmlns="http://www.w3.org/2000/svg">
<g clip-path="url(#clip0_732_16384)">
<ellipse cx="128.5" cy="127.953" rx="120.5" ry="120.329" fill="#56A101"/>
<path fill-rule="evenodd" clip-rule="evenodd" d="M171.199 39.1274C172.289 33.9776 177.985 31.3915 182.586 33.9576C186.429 36.1013 187.834 40.9825 185.71 44.8094L161.987 87.5548C157.964 94.8032 160.563 104.046 167.79 108.2C175.018 112.353 184.139 109.844 188.161 102.596L211.884 59.8506C222.127 41.3949 215.349 17.8554 196.816 7.5178C174.631 -4.85711 147.161 7.61436 141.902 32.449L131.693 80.6641C129.968 88.8122 135.128 96.9124 143.217 98.7566C151.307 100.601 159.264 95.4906 160.989 87.3425L171.199 39.1274Z" fill="#56A101"/>
<path fill-rule="evenodd" clip-rule="evenodd" d="M79.7819 42.3516C78.6543 37.0976 72.8381 34.4668 68.1416 37.0865C64.2508 39.2568 62.7964 44.178 64.8916 48.0838L87.4083 90.0591C91.3278 97.3659 88.6002 106.572 81.3159 110.622C74.0317 114.672 64.9492 112.032 61.0296 104.725L38.5129 62.75C28.5863 44.245 35.4769 20.9292 53.9112 10.6467C76.1625 -1.76498 103.719 10.6993 109.061 35.5921L119.34 83.4925C121.088 91.6354 115.95 99.7497 107.865 101.616C99.78 103.483 91.8091 98.395 90.0615 90.2521L79.7819 42.3516Z" fill="#56A101"/>
<path d="M207.144 156.7C207.144 194.118 170.001 215.484 124.184 215.484C78.3662 215.484 41.2238 194.118 41.2238 156.7C41.2238 119.282 78.3662 88.9482 124.184 88.9482C170.001 88.9482 207.144 119.282 207.144 156.7Z" fill="white" stroke="#56A101" stroke-width="1.02553"/>
<path d="M78.4299 224.079C79.6916 223.497 80.5727 222.315 80.771 220.94C80.9693 219.565 80.4579 218.182 79.4121 217.267L42.1774 184.687C41.1688 183.804 39.7926 183.47 38.4915 183.792C37.1904 184.114 36.1286 185.051 35.6475 186.302L16.0034 237.376C13.3594 244.251 20.4114 250.857 27.0989 247.77L78.4299 224.079Z" fill="#56A101" stroke="#56A101" stroke-width="8.20426" stroke-linejoin="round"/>
<path d="M124.184 179.194L124.184 187.567" stroke="#56A101" stroke-width="9.21019" stroke-linecap="round"/>
<path d="M124.842 178.264C120.825 176.432 119.215 174.981 116.859 172.054C123.295 170.521 126.903 170.302 133.339 172.054C131.113 175.252 129.252 176.612 124.842 178.264Z" fill="#56A101" stroke="#56A101" stroke-width="9.64" stroke-linejoin="round"/>
<path d="M124.184 187.568C116.659 196.324 109.84 197.65 102.211 191.29" stroke="#56A101" stroke-width="9.21019" stroke-linecap="round"/>
<path d="M124.184 187.568C131.708 196.324 138.527 196.72 146.156 190.36" stroke="#56A101" stroke-width="9.21019" stroke-linecap="round"/>
<path d="M81.3483 110.644L52.6726 57.313C46.6005 46.0201 50.7966 31.7839 62.0464 25.51C75.5041 18.0046 92.1887 25.4211 95.623 40.4353L107.696 93.2136L100.158 99.3045L81.3483 110.644Z" fill="white"/>
<path fill-rule="evenodd" clip-rule="evenodd" d="M92.9577 43.483C90.2474 30.866 76.2826 24.545 65.0092 30.8324C55.6696 36.0412 52.1812 47.8572 57.2137 57.2374L78.2531 96.7275C79.2331 98.5541 78.5521 100.855 76.732 101.867C74.9119 102.879 72.642 102.218 71.662 100.392L50.6226 60.9015C43.6321 47.8716 48.4778 31.4582 61.4512 24.2227C77.1109 15.489 96.5092 24.2694 100.274 41.7954L110.561 86.7682C110.998 88.8037 109.715 90.8315 107.694 91.2975C105.674 91.7635 103.682 90.4913 103.244 88.4558L92.9577 43.483Z" fill="#56A101"/>
<path d="M165.536 114.051L196.292 59.5452C202.549 48.4572 198.51 34.2322 187.336 28.0006C173.986 20.555 157.455 28.1136 154.357 43.0804L142.57 100.029C146.953 101.191 151.082 103.197 154.73 105.936L165.536 114.051Z" fill="white"/>
<path fill-rule="evenodd" clip-rule="evenodd" d="M158.704 40.2951C161.36 27.7651 175.218 21.4693 186.406 27.7095C195.753 32.9223 199.169 44.7972 194 54.1096L170.275 96.8535C169.269 98.6655 169.918 100.976 171.723 102.013C173.529 103.051 175.809 102.423 176.815 100.611L200.54 57.8674C207.738 44.898 202.981 28.3597 189.964 21.0998C174.382 12.4091 155.082 21.1772 151.384 38.6278L141.166 86.8367C140.734 88.8735 142.023 90.8978 144.044 91.3582C146.066 91.8186 148.055 90.5407 148.486 88.504L158.704 40.2951Z" fill="#56A101"/>
<path d="M59.4316 164.692L96.2117 196.77L36.4439 225.329L59.4316 164.692Z" fill="white" stroke="white" stroke-width="1.02553"/>
<path d="M170.311 122.445H76.225C71.3629 122.445 67.4214 126.373 67.4214 131.22V150.886C67.4214 155.732 71.3629 159.661 76.225 159.661H101.083C103.264 159.661 105.032 157.899 105.032 155.725C105.032 152.101 107.979 149.164 111.614 149.164H138.341C141.976 149.164 144.923 152.101 144.923 155.725C144.923 157.899 146.691 159.661 148.872 159.661H170.311C175.173 159.661 179.115 155.732 179.115 150.886V131.22C179.115 126.373 175.173 122.445 170.311 122.445Z" fill="#56A101" stroke="#56A101" stroke-width="0.512766"/>
</g>
<defs>
<clipPath id="clip0_732_16384">
<rect width="256" height="256" fill="white"/>
</clipPath>
</defs>
</svg>
