<svg width="16" height="16" viewBox="0 0 16 16" fill="none" xmlns="http://www.w3.org/2000/svg" shape-rendering="geometricPrecision">
<ellipse cx="8.5" cy="8.21248" rx="7.5" ry="7.48934" fill="#56A101"/>
<path fill-rule="evenodd" clip-rule="evenodd" d="M11.1576 2.68403C11.2255 2.3635 11.58 2.20254 11.8664 2.36226C12.1056 2.49568 12.1931 2.79949 12.0609 3.03768L10.5843 5.69818C10.3339 6.14933 10.4957 6.72462 10.9455 6.98314C11.3954 7.24165 11.963 7.08549 12.2134 6.63435L13.69 3.97385C14.3275 2.82516 13.9056 1.36004 12.7521 0.716624C11.3713 -0.0535982 9.66152 0.722634 9.33423 2.26836L8.69881 5.2693C8.59143 5.77644 8.91257 6.28061 9.41609 6.39539C9.91961 6.51017 10.4148 6.19211 10.5222 5.68497L11.1576 2.68403Z" fill="#56A101"/>
<path fill-rule="evenodd" clip-rule="evenodd" d="M5.46781 2.88459C5.39763 2.55758 5.03563 2.39383 4.74332 2.55689C4.50115 2.69197 4.41062 2.99826 4.54103 3.24136L5.94248 5.85394C6.18644 6.30871 6.01667 6.88173 5.56329 7.1338C5.10991 7.38588 4.54461 7.22155 4.30066 6.76678L2.89921 4.1542C2.28137 3.00244 2.71024 1.55124 3.8576 0.911253C5.24254 0.138744 6.95765 0.914527 7.29015 2.46387L7.92996 5.44523C8.03873 5.95205 7.71896 6.45709 7.21573 6.57327C6.71251 6.68944 6.21639 6.37277 6.10763 5.86595L5.46781 2.88459Z" fill="#56A101"/>
<path d="M13.3948 10.002C13.3948 12.331 11.0831 13.6608 8.23135 13.6608C5.37964 13.6608 3.06787 12.331 3.06787 10.002C3.06787 7.67312 5.37964 5.78516 8.23135 5.78516C11.0831 5.78516 13.3948 7.67312 13.3948 10.002Z" fill="white" stroke="#56A101" stroke-width="0.0638298"/>
<path d="M5.38363 14.1957C5.46216 14.1594 5.517 14.0859 5.52935 14.0003C5.54169 13.9147 5.50986 13.8287 5.44477 13.7717L3.12726 11.7439C3.06448 11.689 2.97882 11.6682 2.89784 11.6882C2.81686 11.7082 2.75077 11.7665 2.72083 11.8444L1.49817 15.0233C1.3336 15.4512 1.77252 15.8623 2.18876 15.6702L5.38363 14.1957Z" fill="#56A101" stroke="#56A101" stroke-width="0.510638" stroke-linejoin="round"/>
<path d="M8.23145 11.4019L8.23145 11.923" stroke="#56A101" stroke-width="0.6" stroke-linecap="round"/>
<path d="M8.27221 11.3441C8.02221 11.2301 7.92199 11.1398 7.77539 10.9576C8.17595 10.8622 8.40052 10.8486 8.80107 10.9576C8.66253 11.1566 8.54671 11.2413 8.27221 11.3441Z" fill="#56A101" stroke="#56A101" stroke-width="0.6" stroke-linejoin="round"/>
<path d="M8.23135 11.9233C7.76301 12.4683 7.33861 12.5508 6.86377 12.155" stroke="#56A101" stroke-width="0.8" stroke-linecap="round"/>
<path d="M8.2313 11.9233C8.69964 12.4683 9.12404 12.4929 9.59888 12.0971" stroke="#56A101" stroke-width="0.8" stroke-linecap="round"/>
<path d="M5.56534 7.13552L3.78054 3.81615C3.40261 3.11328 3.66378 2.22721 4.36397 1.83671C5.2016 1.36958 6.24005 1.83118 6.45381 2.76567L7.20521 6.05063L6.73605 6.42973L5.56534 7.13552Z" fill="white"/>
<path fill-rule="evenodd" clip-rule="evenodd" d="M6.28792 2.95536C6.11923 2.17007 5.25005 1.77665 4.54838 2.16798C3.96708 2.49219 3.74996 3.22762 4.06319 3.81145L5.37269 6.26934C5.43369 6.38303 5.3913 6.52624 5.27802 6.58922C5.16474 6.65219 5.02346 6.61108 4.96246 6.49739L3.65295 4.0395C3.21786 3.22852 3.51946 2.20693 4.32693 1.75659C5.3016 1.213 6.50897 1.7595 6.74329 2.85033L7.38354 5.64947C7.41076 5.77616 7.33088 5.90237 7.20513 5.93137C7.07938 5.96038 6.95538 5.88119 6.92817 5.7545L6.28792 2.95536Z" fill="#56A101"/>
<path d="M10.805 7.34756L12.7193 3.9551C13.1087 3.26497 12.8574 2.3796 12.1619 1.99174C11.3309 1.52832 10.3021 1.99877 10.1093 2.93031L9.37557 6.47484C9.64841 6.54716 9.90542 6.672 10.1324 6.84247L10.805 7.34756Z" fill="white"/>
<path fill-rule="evenodd" clip-rule="evenodd" d="M10.3798 2.75696C10.5451 1.97708 11.4076 1.58523 12.104 1.97362C12.6857 2.29807 12.8983 3.03717 12.5766 3.61678L11.1 6.27719C11.0374 6.38997 11.0777 6.53376 11.1901 6.59834C11.3025 6.66293 11.4444 6.62386 11.507 6.51108L12.9837 3.85067C13.4317 3.04344 13.1357 2.01409 12.3255 1.56223C11.3556 1.02131 10.1544 1.56705 9.92417 2.65318L9.2882 5.65374C9.26133 5.78051 9.34155 5.9065 9.46737 5.93516C9.59319 5.96382 9.71697 5.88428 9.74384 5.75751L10.3798 2.75696Z" fill="#56A101"/>
<path d="M4.20122 10.4995L6.49045 12.4961L2.77046 14.2736L4.20122 10.4995Z" fill="white" stroke="white" stroke-width="0.0638298"/>
<path d="M11.1024 7.87012H5.24643C4.94381 7.87012 4.69849 8.11464 4.69849 8.41628V9.64033C4.69849 9.94196 4.94381 10.1865 5.24643 10.1865H6.79362C6.92937 10.1865 7.03942 10.0768 7.03942 9.94149C7.03942 9.71597 7.22283 9.53315 7.44909 9.53315H9.11255C9.33881 9.53315 9.52222 9.71597 9.52222 9.94149C9.52222 10.0768 9.63227 10.1865 9.76802 10.1865H11.1024C11.405 10.1865 11.6503 9.94196 11.6503 9.64033V8.41628C11.6503 8.11464 11.405 7.87012 11.1024 7.87012Z" fill="#56A101" stroke="#56A101" stroke-width="0.0319149"/>
</svg>
