<svg width="320" height="356" viewBox="0 0 320 356" fill="none" xmlns="http://www.w3.org/2000/svg">
<path d="M180.212 120.421L159.563 148.268L163.829 148.682L194.762 170.062L210.434 141.731L180.212 120.421Z" fill="#4B8E00"/>
<path d="M131.413 164.721C123.834 173.53 91.2808 236.117 63.9405 296.636C63.3894 301.974 107.333 271.75 115.5 264.5C152.203 235.104 162.756 225.379 188.414 195.851C198.241 181.954 213.017 160.332 187.281 143.963C161.546 127.594 139.833 149.93 131.413 164.721Z" fill="url(#paint0_linear_324_14)"/>
<path d="M140.192 158.714C140.219 164.261 143.241 177.956 155.116 188.353M117.573 190.548C117.6 196.095 120.622 209.79 132.497 220.187M98.7533 231.316C98.7801 236.864 101.111 244.193 112.986 254.59" stroke="#F9B090" stroke-width="3" stroke-linejoin="round"/>
<path d="M126.198 125.43C142.815 116.608 157.661 127.871 163.007 134.605L155.797 108.247C141.881 99.5804 130.266 116.091 126.198 125.43Z" fill="#56A101"/>
<path d="M129.515 132.694C146.132 123.872 160.978 135.135 166.324 141.869L159.115 115.511C145.199 106.844 133.584 123.355 129.515 132.694Z" fill="#56A101"/>
<path d="M259.537 173.862C256.181 160.81 243.229 159.079 237.172 159.844L256.756 143.174C263.683 150.259 261.496 166.585 259.537 173.862Z" fill="#56A101"/>
<path d="M255.403 176.189C252.047 163.138 239.095 161.407 233.038 162.172L252.622 145.502C259.549 152.587 257.362 168.912 255.403 176.189Z" fill="#56A101"/>
<path d="M136.934 171.848C152.674 152.006 173.286 147.651 181.625 147.954L166.191 129.636C144.638 132.395 137.706 158.927 136.934 171.848Z" fill="#56A101"/>
<path d="M139.598 71.0226C148.765 57.112 160.957 63.3396 165.907 68.1922L149.893 101.17C142.642 96.9169 130.431 84.9332 139.598 71.0226Z" fill="#56A101"/>
<path d="M280.27 107.025C280.952 123.67 267.418 125.734 260.566 124.686L254.309 88.563C262.679 87.7814 279.589 90.3797 280.27 107.025Z" fill="#56A101"/>
<path fill-rule="evenodd" clip-rule="evenodd" d="M173.182 152.623C200.43 174.952 238.54 173.504 258.303 149.388C278.066 125.271 271.998 87.6198 244.75 65.2903C217.502 42.9609 179.392 44.4092 159.629 68.5253C139.866 92.6415 145.934 130.293 173.182 152.623ZM192.649 123.558C208.244 137.154 228.503 139.438 237.899 128.661C247.296 117.883 242.27 98.1244 226.675 84.5285C211.08 70.9327 190.821 68.6482 181.425 79.4259C172.029 90.2036 177.054 109.962 192.649 123.558Z" fill="#4B8E00"/>
<defs>
<linearGradient id="paint0_linear_324_14" x1="131.259" y1="164.031" x2="189.596" y2="206.47" gradientUnits="userSpaceOnUse">
<stop stop-color="#C44418"/>
<stop offset="0.414612" stop-color="#FB9438"/>
<stop offset="1" stop-color="#C44418"/>
</linearGradient>
</defs>
</svg>
